<svg width="189" height="41" viewBox="0 0 189 41" fill="none" xmlns="http://www.w3.org/2000/svg">
<g clip-path="url(#clip0_412_260)">
<path d="M169 0.5H20C8.9543 0.5 0 9.4543 0 20.5C0 31.5457 8.9543 40.5 20 40.5H169C180.046 40.5 189 31.5457 189 20.5C189 9.4543 180.046 0.5 169 0.5Z" fill="#F2F2F2"/>
<mask id="mask0_412_260" style="mask-type:luminance" maskUnits="userSpaceOnUse" x="12" y="10" width="20" height="21">
<path d="M32 10.5H12V30.5H32V10.5Z" fill="white"/>
</mask>
<g mask="url(#mask0_412_260)">
<path d="M31.6 20.7273C31.6 20.0182 31.5364 19.3364 31.4182 18.6818H22V22.55H27.3818C27.15 23.8 26.4455 24.8591 25.3864 25.5682V28.0773H28.6182C30.5091 26.3364 31.6 23.7727 31.6 20.7273Z" fill="#4285F4"/>
<path d="M22 30.5C24.7 30.5 26.9636 29.6045 28.6181 28.0773L25.3863 25.5682C24.4909 26.1682 23.3454 26.5227 22 26.5227C19.3954 26.5227 17.1909 24.7636 16.4045 22.4H13.0636V24.9909C14.7091 28.2591 18.0909 30.5 22 30.5Z" fill="#34A853"/>
<path d="M16.4045 22.4C16.2045 21.8 16.0909 21.1591 16.0909 20.5C16.0909 19.8409 16.2045 19.2 16.4045 18.6V16.0091H13.0636C12.3864 17.3591 12 18.8864 12 20.5C12 22.1136 12.3864 23.6409 13.0636 24.9909L16.4045 22.4Z" fill="#FBBC04"/>
<path d="M22 14.4773C23.4681 14.4773 24.7863 14.9818 25.8227 15.9727L28.6909 13.1045C26.9591 11.4909 24.6954 10.5 22 10.5C18.0909 10.5 14.7091 12.7409 13.0636 16.0091L16.4045 18.6C17.1909 16.2364 19.3954 14.4773 22 14.4773Z" fill="#E94235"/>
</g>
<path d="M48.8906 22.2598H50.5996C50.5449 22.9115 50.3626 23.4925 50.0527 24.0029C49.7428 24.5088 49.3076 24.9076 48.7471 25.1992C48.1865 25.4909 47.5052 25.6367 46.7031 25.6367C46.0879 25.6367 45.5342 25.5273 45.042 25.3086C44.5498 25.0853 44.1283 24.7708 43.7773 24.3652C43.4264 23.9551 43.1576 23.4606 42.9707 22.8818C42.7884 22.3031 42.6973 21.6559 42.6973 20.9404V20.1133C42.6973 19.3978 42.7907 18.7507 42.9775 18.1719C43.1689 17.5931 43.4424 17.0986 43.7979 16.6885C44.1533 16.2738 44.5794 15.957 45.0762 15.7383C45.5775 15.5195 46.1403 15.4102 46.7646 15.4102C47.5576 15.4102 48.2275 15.556 48.7744 15.8477C49.3213 16.1393 49.7451 16.5426 50.0459 17.0576C50.3512 17.5726 50.5381 18.1628 50.6064 18.8281H48.8975C48.8519 18.3997 48.7516 18.0329 48.5967 17.7275C48.4463 17.4222 48.223 17.1898 47.9268 17.0303C47.6305 16.8662 47.2432 16.7842 46.7646 16.7842C46.3727 16.7842 46.0309 16.8571 45.7393 17.0029C45.4476 17.1488 45.2038 17.363 45.0078 17.6455C44.8118 17.9281 44.6637 18.2767 44.5635 18.6914C44.4678 19.1016 44.4199 19.571 44.4199 20.0996V20.9404C44.4199 21.4417 44.4632 21.8975 44.5498 22.3076C44.641 22.7132 44.7777 23.0618 44.96 23.3535C45.1468 23.6452 45.3838 23.8708 45.6709 24.0303C45.958 24.1898 46.3021 24.2695 46.7031 24.2695C47.1908 24.2695 47.585 24.1921 47.8857 24.0371C48.1911 23.8822 48.4212 23.6566 48.5762 23.3604C48.7357 23.0596 48.8405 22.6927 48.8906 22.2598ZM51.6797 21.8838V21.7266C51.6797 21.1934 51.7572 20.6989 51.9121 20.2432C52.0671 19.7829 52.2904 19.3841 52.582 19.0469C52.8783 18.7051 53.2383 18.4408 53.6621 18.2539C54.0905 18.0625 54.5736 17.9668 55.1113 17.9668C55.6536 17.9668 56.1367 18.0625 56.5605 18.2539C56.9889 18.4408 57.3512 18.7051 57.6475 19.0469C57.9437 19.3841 58.1693 19.7829 58.3242 20.2432C58.4792 20.6989 58.5566 21.1934 58.5566 21.7266V21.8838C58.5566 22.417 58.4792 22.9115 58.3242 23.3672C58.1693 23.8229 57.9437 24.2217 57.6475 24.5635C57.3512 24.9007 56.9912 25.165 56.5674 25.3564C56.1436 25.5433 55.6628 25.6367 55.125 25.6367C54.5827 25.6367 54.0973 25.5433 53.6689 25.3564C53.2451 25.165 52.8851 24.9007 52.5889 24.5635C52.2926 24.2217 52.0671 23.8229 51.9121 23.3672C51.7572 22.9115 51.6797 22.417 51.6797 21.8838ZM53.3271 21.7266V21.8838C53.3271 22.2165 53.3613 22.5309 53.4297 22.8271C53.498 23.1234 53.6051 23.3831 53.751 23.6064C53.8968 23.8298 54.0837 24.0052 54.3115 24.1328C54.5394 24.2604 54.8105 24.3242 55.125 24.3242C55.4303 24.3242 55.6947 24.2604 55.918 24.1328C56.1458 24.0052 56.3327 23.8298 56.4785 23.6064C56.6243 23.3831 56.7314 23.1234 56.7998 22.8271C56.8727 22.5309 56.9092 22.2165 56.9092 21.8838V21.7266C56.9092 21.3984 56.8727 21.0885 56.7998 20.7969C56.7314 20.5007 56.6221 20.2386 56.4717 20.0107C56.3258 19.7829 56.139 19.6051 55.9111 19.4775C55.6878 19.3454 55.4212 19.2793 55.1113 19.2793C54.8014 19.2793 54.5326 19.3454 54.3047 19.4775C54.0814 19.6051 53.8968 19.7829 53.751 20.0107C53.6051 20.2386 53.498 20.5007 53.4297 20.7969C53.3613 21.0885 53.3271 21.3984 53.3271 21.7266ZM61.5713 19.6826V25.5H59.9238V18.1035H61.4756L61.5713 19.6826ZM61.2773 21.5283L60.7441 21.5215C60.7487 20.9974 60.8216 20.5166 60.9629 20.0791C61.1087 19.6416 61.3092 19.2656 61.5645 18.9512C61.8242 18.6367 62.1341 18.3952 62.4941 18.2266C62.8542 18.0534 63.2552 17.9668 63.6973 17.9668C64.0527 17.9668 64.374 18.0169 64.6611 18.1172C64.9528 18.2129 65.2012 18.3701 65.4062 18.5889C65.6159 18.8076 65.7754 19.0924 65.8848 19.4434C65.9941 19.7897 66.0488 20.2158 66.0488 20.7217V25.5H64.3945V20.7148C64.3945 20.3594 64.3421 20.0791 64.2373 19.874C64.137 19.6644 63.9889 19.5163 63.793 19.4297C63.6016 19.3385 63.3623 19.293 63.0752 19.293C62.7926 19.293 62.5397 19.3522 62.3164 19.4707C62.0931 19.5892 61.904 19.751 61.749 19.9561C61.5986 20.1611 61.4824 20.3981 61.4004 20.667C61.3184 20.9359 61.2773 21.223 61.2773 21.5283ZM71.1211 18.1035V19.3066H66.9512V18.1035H71.1211ZM68.1543 16.292H69.8018V23.4561C69.8018 23.6839 69.8337 23.8594 69.8975 23.9824C69.9658 24.1009 70.0592 24.1807 70.1777 24.2217C70.2962 24.2627 70.4352 24.2832 70.5947 24.2832C70.7087 24.2832 70.818 24.2764 70.9229 24.2627C71.0277 24.249 71.112 24.2354 71.1758 24.2217L71.1826 25.4795C71.0459 25.5205 70.8864 25.557 70.7041 25.5889C70.5264 25.6208 70.3213 25.6367 70.0889 25.6367C69.7106 25.6367 69.3757 25.5706 69.084 25.4385C68.7923 25.3018 68.5645 25.0807 68.4004 24.7754C68.2363 24.4701 68.1543 24.0645 68.1543 23.5586V16.292ZM74.1562 18.1035V25.5H72.502V18.1035H74.1562ZM72.3926 16.1621C72.3926 15.9115 72.4746 15.7041 72.6387 15.54C72.8073 15.3714 73.0397 15.2871 73.3359 15.2871C73.6276 15.2871 73.8577 15.3714 74.0264 15.54C74.195 15.7041 74.2793 15.9115 74.2793 16.1621C74.2793 16.4082 74.195 16.6133 74.0264 16.7773C73.8577 16.9414 73.6276 17.0234 73.3359 17.0234C73.0397 17.0234 72.8073 16.9414 72.6387 16.7773C72.4746 16.6133 72.3926 16.4082 72.3926 16.1621ZM77.5947 19.6826V25.5H75.9473V18.1035H77.499L77.5947 19.6826ZM77.3008 21.5283L76.7676 21.5215C76.7721 20.9974 76.8451 20.5166 76.9863 20.0791C77.1322 19.6416 77.3327 19.2656 77.5879 18.9512C77.8477 18.6367 78.1576 18.3952 78.5176 18.2266C78.8776 18.0534 79.2786 17.9668 79.7207 17.9668C80.0762 17.9668 80.3975 18.0169 80.6846 18.1172C80.9762 18.2129 81.2246 18.3701 81.4297 18.5889C81.6393 18.8076 81.7988 19.0924 81.9082 19.4434C82.0176 19.7897 82.0723 20.2158 82.0723 20.7217V25.5H80.418V20.7148C80.418 20.3594 80.3656 20.0791 80.2607 19.874C80.1605 19.6644 80.0124 19.5163 79.8164 19.4297C79.625 19.3385 79.3857 19.293 79.0986 19.293C78.8161 19.293 78.5632 19.3522 78.3398 19.4707C78.1165 19.5892 77.9274 19.751 77.7725 19.9561C77.6221 20.1611 77.5059 20.3981 77.4238 20.667C77.3418 20.9359 77.3008 21.223 77.3008 21.5283ZM88.2041 23.7568V18.1035H89.8584V25.5H88.2998L88.2041 23.7568ZM88.4365 22.2188L88.9902 22.2051C88.9902 22.7018 88.9355 23.1598 88.8262 23.5791C88.7168 23.9938 88.5482 24.3561 88.3203 24.666C88.0924 24.9714 87.8008 25.2106 87.4453 25.3838C87.0898 25.5524 86.6637 25.6367 86.167 25.6367C85.807 25.6367 85.4766 25.5843 85.1758 25.4795C84.875 25.3747 84.6152 25.2129 84.3965 24.9941C84.1823 24.7754 84.016 24.4906 83.8975 24.1396C83.779 23.7887 83.7197 23.3695 83.7197 22.8818V18.1035H85.3672V22.8955C85.3672 23.1644 85.3991 23.39 85.4629 23.5723C85.5267 23.75 85.6133 23.8936 85.7227 24.0029C85.832 24.1123 85.9596 24.1898 86.1055 24.2354C86.2513 24.2809 86.4062 24.3037 86.5703 24.3037C87.0397 24.3037 87.4089 24.2126 87.6777 24.0303C87.9512 23.8434 88.1449 23.5928 88.2588 23.2783C88.3773 22.9639 88.4365 22.6107 88.4365 22.2188ZM94.8076 25.6367C94.2607 25.6367 93.7663 25.5479 93.3242 25.3701C92.8867 25.1878 92.513 24.9349 92.2031 24.6113C91.8978 24.2878 91.6631 23.9072 91.499 23.4697C91.335 23.0322 91.2529 22.5605 91.2529 22.0547V21.7812C91.2529 21.2025 91.3372 20.6784 91.5059 20.209C91.6745 19.7396 91.9092 19.3385 92.21 19.0059C92.5107 18.6686 92.8662 18.4111 93.2764 18.2334C93.6865 18.0557 94.1309 17.9668 94.6094 17.9668C95.138 17.9668 95.6006 18.0557 95.9971 18.2334C96.3936 18.4111 96.7217 18.6618 96.9814 18.9854C97.2458 19.3044 97.4417 19.6849 97.5693 20.127C97.7015 20.569 97.7676 21.0566 97.7676 21.5898V22.2939H92.0527V21.1113H96.1406V20.9814C96.1315 20.6852 96.0723 20.4072 95.9629 20.1475C95.8581 19.8877 95.6963 19.6781 95.4775 19.5186C95.2588 19.359 94.9671 19.2793 94.6025 19.2793C94.3291 19.2793 94.0853 19.3385 93.8711 19.457C93.6615 19.571 93.486 19.7373 93.3447 19.9561C93.2035 20.1748 93.0941 20.4391 93.0166 20.749C92.9437 21.0544 92.9072 21.3984 92.9072 21.7812V22.0547C92.9072 22.3783 92.9505 22.679 93.0371 22.957C93.1283 23.2305 93.2604 23.4697 93.4336 23.6748C93.6068 23.8799 93.8164 24.0417 94.0625 24.1602C94.3086 24.2741 94.5889 24.3311 94.9033 24.3311C95.2998 24.3311 95.653 24.2513 95.9629 24.0918C96.2728 23.9323 96.5417 23.7067 96.7695 23.415L97.6377 24.2559C97.4782 24.4883 97.2708 24.7116 97.0156 24.9258C96.7604 25.1354 96.4482 25.3063 96.0791 25.4385C95.7145 25.5706 95.2907 25.6367 94.8076 25.6367ZM104.549 23.8594L106.258 18.1035H107.311L107.023 19.8262L105.301 25.5H104.357L104.549 23.8594ZM103.544 18.1035L104.877 23.8867L104.986 25.5H103.934L101.931 18.1035H103.544ZM108.91 23.8184L110.202 18.1035H111.809L109.812 25.5H108.76L108.91 23.8184ZM107.488 18.1035L109.177 23.791L109.389 25.5H108.445L106.702 19.8193L106.415 18.1035H107.488ZM114.693 18.1035V25.5H113.039V18.1035H114.693ZM112.93 16.1621C112.93 15.9115 113.012 15.7041 113.176 15.54C113.344 15.3714 113.577 15.2871 113.873 15.2871C114.165 15.2871 114.395 15.3714 114.563 15.54C114.732 15.7041 114.816 15.9115 114.816 16.1621C114.816 16.4082 114.732 16.6133 114.563 16.7773C114.395 16.9414 114.165 17.0234 113.873 17.0234C113.577 17.0234 113.344 16.9414 113.176 16.7773C113.012 16.6133 112.93 16.4082 112.93 16.1621ZM119.889 18.1035V19.3066H115.719V18.1035H119.889ZM116.922 16.292H118.569V23.4561C118.569 23.6839 118.601 23.8594 118.665 23.9824C118.733 24.1009 118.827 24.1807 118.945 24.2217C119.064 24.2627 119.203 24.2832 119.362 24.2832C119.476 24.2832 119.586 24.2764 119.69 24.2627C119.795 24.249 119.88 24.2354 119.943 24.2217L119.95 25.4795C119.813 25.5205 119.654 25.557 119.472 25.5889C119.294 25.6208 119.089 25.6367 118.856 25.6367C118.478 25.6367 118.143 25.5706 117.852 25.4385C117.56 25.3018 117.332 25.0807 117.168 24.7754C117.004 24.4701 116.922 24.0645 116.922 23.5586V16.292ZM122.787 15V25.5H121.146V15H122.787ZM122.5 21.5283L121.967 21.5215C121.971 21.0111 122.042 20.5394 122.179 20.1064C122.32 19.6735 122.516 19.2975 122.767 18.9785C123.022 18.6549 123.327 18.4066 123.683 18.2334C124.038 18.0557 124.432 17.9668 124.865 17.9668C125.23 17.9668 125.558 18.0169 125.85 18.1172C126.146 18.2174 126.401 18.3792 126.615 18.6025C126.829 18.8213 126.991 19.1084 127.101 19.4639C127.215 19.8148 127.271 20.2432 127.271 20.749V25.5H125.617V20.7354C125.617 20.3799 125.565 20.0973 125.46 19.8877C125.36 19.6781 125.212 19.5277 125.016 19.4365C124.82 19.3408 124.58 19.293 124.298 19.293C124.002 19.293 123.74 19.3522 123.512 19.4707C123.288 19.5892 123.102 19.751 122.951 19.9561C122.801 20.1611 122.687 20.3981 122.609 20.667C122.536 20.9359 122.5 21.223 122.5 21.5283ZM140.232 20.4141V24.2148C140.091 24.4017 139.87 24.6068 139.569 24.8301C139.273 25.0488 138.879 25.238 138.387 25.3975C137.895 25.557 137.282 25.6367 136.548 25.6367C135.924 25.6367 135.352 25.5319 134.832 25.3223C134.312 25.1081 133.864 24.7959 133.485 24.3857C133.112 23.9756 132.822 23.4766 132.617 22.8887C132.412 22.2962 132.31 21.6217 132.31 20.8652V20.1748C132.31 19.4229 132.403 18.7529 132.59 18.165C132.781 17.5726 133.055 17.0713 133.41 16.6611C133.766 16.251 134.194 15.9411 134.695 15.7314C135.201 15.5173 135.773 15.4102 136.411 15.4102C137.227 15.4102 137.901 15.5469 138.435 15.8203C138.972 16.0892 139.387 16.4629 139.679 16.9414C139.97 17.4199 140.155 17.9668 140.232 18.582H138.551C138.496 18.2357 138.389 17.9258 138.229 17.6523C138.075 17.3789 137.851 17.1647 137.56 17.0098C137.272 16.8503 136.899 16.7705 136.438 16.7705C136.042 16.7705 135.693 16.8457 135.393 16.9961C135.092 17.1465 134.841 17.3675 134.641 17.6592C134.445 17.9508 134.297 18.3063 134.196 18.7256C134.096 19.1449 134.046 19.6234 134.046 20.1611V20.8652C134.046 21.4121 134.103 21.8975 134.217 22.3213C134.335 22.7451 134.504 23.1029 134.723 23.3945C134.946 23.6862 135.217 23.9072 135.536 24.0576C135.855 24.2035 136.215 24.2764 136.616 24.2764C137.008 24.2764 137.329 24.2445 137.58 24.1807C137.831 24.1123 138.029 24.0326 138.175 23.9414C138.325 23.8457 138.441 23.7546 138.523 23.668V21.6924H136.452V20.4141H140.232ZM141.654 21.8838V21.7266C141.654 21.1934 141.732 20.6989 141.887 20.2432C142.042 19.7829 142.265 19.3841 142.557 19.0469C142.853 18.7051 143.213 18.4408 143.637 18.2539C144.065 18.0625 144.548 17.9668 145.086 17.9668C145.628 17.9668 146.111 18.0625 146.535 18.2539C146.964 18.4408 147.326 18.7051 147.622 19.0469C147.918 19.3841 148.144 19.7829 148.299 20.2432C148.454 20.6989 148.531 21.1934 148.531 21.7266V21.8838C148.531 22.417 148.454 22.9115 148.299 23.3672C148.144 23.8229 147.918 24.2217 147.622 24.5635C147.326 24.9007 146.966 25.165 146.542 25.3564C146.118 25.5433 145.637 25.6367 145.1 25.6367C144.557 25.6367 144.072 25.5433 143.644 25.3564C143.22 25.165 142.86 24.9007 142.563 24.5635C142.267 24.2217 142.042 23.8229 141.887 23.3672C141.732 22.9115 141.654 22.417 141.654 21.8838ZM143.302 21.7266V21.8838C143.302 22.2165 143.336 22.5309 143.404 22.8271C143.473 23.1234 143.58 23.3831 143.726 23.6064C143.871 23.8298 144.058 24.0052 144.286 24.1328C144.514 24.2604 144.785 24.3242 145.1 24.3242C145.405 24.3242 145.669 24.2604 145.893 24.1328C146.12 24.0052 146.307 23.8298 146.453 23.6064C146.599 23.3831 146.706 23.1234 146.774 22.8271C146.847 22.5309 146.884 22.2165 146.884 21.8838V21.7266C146.884 21.3984 146.847 21.0885 146.774 20.7969C146.706 20.5007 146.597 20.2386 146.446 20.0107C146.3 19.7829 146.114 19.6051 145.886 19.4775C145.662 19.3454 145.396 19.2793 145.086 19.2793C144.776 19.2793 144.507 19.3454 144.279 19.4775C144.056 19.6051 143.871 19.7829 143.726 20.0107C143.58 20.2386 143.473 20.5007 143.404 20.7969C143.336 21.0885 143.302 21.3984 143.302 21.7266ZM149.598 21.8838V21.7266C149.598 21.1934 149.675 20.6989 149.83 20.2432C149.985 19.7829 150.208 19.3841 150.5 19.0469C150.796 18.7051 151.156 18.4408 151.58 18.2539C152.008 18.0625 152.492 17.9668 153.029 17.9668C153.572 17.9668 154.055 18.0625 154.479 18.2539C154.907 18.4408 155.269 18.7051 155.565 19.0469C155.862 19.3841 156.087 19.7829 156.242 20.2432C156.397 20.6989 156.475 21.1934 156.475 21.7266V21.8838C156.475 22.417 156.397 22.9115 156.242 23.3672C156.087 23.8229 155.862 24.2217 155.565 24.5635C155.269 24.9007 154.909 25.165 154.485 25.3564C154.062 25.5433 153.581 25.6367 153.043 25.6367C152.501 25.6367 152.015 25.5433 151.587 25.3564C151.163 25.165 150.803 24.9007 150.507 24.5635C150.211 24.2217 149.985 23.8229 149.83 23.3672C149.675 22.9115 149.598 22.417 149.598 21.8838ZM151.245 21.7266V21.8838C151.245 22.2165 151.279 22.5309 151.348 22.8271C151.416 23.1234 151.523 23.3831 151.669 23.6064C151.815 23.8298 152.002 24.0052 152.229 24.1328C152.457 24.2604 152.729 24.3242 153.043 24.3242C153.348 24.3242 153.613 24.2604 153.836 24.1328C154.064 24.0052 154.251 23.8298 154.396 23.6064C154.542 23.3831 154.649 23.1234 154.718 22.8271C154.791 22.5309 154.827 22.2165 154.827 21.8838V21.7266C154.827 21.3984 154.791 21.0885 154.718 20.7969C154.649 20.5007 154.54 20.2386 154.39 20.0107C154.244 19.7829 154.057 19.6051 153.829 19.4775C153.606 19.3454 153.339 19.2793 153.029 19.2793C152.719 19.2793 152.451 19.3454 152.223 19.4775C151.999 19.6051 151.815 19.7829 151.669 20.0107C151.523 20.2386 151.416 20.5007 151.348 20.7969C151.279 21.0885 151.245 21.3984 151.245 21.7266ZM162.593 18.1035H164.09V25.2949C164.09 25.9603 163.949 26.5254 163.666 26.9902C163.383 27.4551 162.989 27.8083 162.483 28.0498C161.978 28.2959 161.392 28.4189 160.727 28.4189C160.444 28.4189 160.13 28.3779 159.783 28.2959C159.441 28.2139 159.109 28.0817 158.785 27.8994C158.466 27.7217 158.2 27.487 157.985 27.1953L158.758 26.2246C159.022 26.5391 159.314 26.7692 159.633 26.915C159.952 27.0609 160.287 27.1338 160.638 27.1338C161.016 27.1338 161.337 27.0632 161.602 26.9219C161.87 26.7852 162.078 26.5824 162.224 26.3135C162.369 26.0446 162.442 25.7165 162.442 25.3291V19.7783L162.593 18.1035ZM157.568 21.8838V21.7402C157.568 21.1797 157.637 20.6693 157.773 20.209C157.91 19.7441 158.106 19.3454 158.361 19.0127C158.617 18.6755 158.926 18.418 159.291 18.2402C159.656 18.0579 160.068 17.9668 160.528 17.9668C161.007 17.9668 161.415 18.0534 161.752 18.2266C162.094 18.3997 162.379 18.6481 162.606 18.9717C162.834 19.2907 163.012 19.6735 163.14 20.1201C163.272 20.5622 163.37 21.0544 163.434 21.5967V22.0547C163.374 22.5833 163.274 23.0664 163.133 23.5039C162.992 23.9414 162.805 24.3197 162.572 24.6387C162.34 24.9577 162.053 25.2038 161.711 25.377C161.374 25.5501 160.975 25.6367 160.515 25.6367C160.063 25.6367 159.656 25.5433 159.291 25.3564C158.931 25.1696 158.621 24.9076 158.361 24.5703C158.106 24.2331 157.91 23.8366 157.773 23.3809C157.637 22.9206 157.568 22.4215 157.568 21.8838ZM159.216 21.7402V21.8838C159.216 22.221 159.248 22.5355 159.312 22.8271C159.38 23.1188 159.482 23.3763 159.619 23.5996C159.76 23.8184 159.938 23.9915 160.152 24.1191C160.371 24.2422 160.629 24.3037 160.925 24.3037C161.312 24.3037 161.629 24.2217 161.875 24.0576C162.126 23.8936 162.317 23.6725 162.449 23.3945C162.586 23.112 162.682 22.7975 162.736 22.4512V21.2139C162.709 20.945 162.652 20.6943 162.565 20.4619C162.483 20.2295 162.372 20.0267 162.23 19.8535C162.089 19.6758 161.911 19.5391 161.697 19.4434C161.483 19.3431 161.23 19.293 160.938 19.293C160.642 19.293 160.385 19.3568 160.166 19.4844C159.947 19.612 159.767 19.7874 159.626 20.0107C159.489 20.234 159.387 20.4938 159.318 20.79C159.25 21.0863 159.216 21.403 159.216 21.7402ZM167.562 15V25.5H165.908V15H167.562ZM172.628 25.6367C172.081 25.6367 171.587 25.5479 171.145 25.3701C170.707 25.1878 170.333 24.9349 170.023 24.6113C169.718 24.2878 169.483 23.9072 169.319 23.4697C169.155 23.0322 169.073 22.5605 169.073 22.0547V21.7812C169.073 21.2025 169.158 20.6784 169.326 20.209C169.495 19.7396 169.729 19.3385 170.03 19.0059C170.331 18.6686 170.687 18.4111 171.097 18.2334C171.507 18.0557 171.951 17.9668 172.43 17.9668C172.958 17.9668 173.421 18.0557 173.817 18.2334C174.214 18.4111 174.542 18.6618 174.802 18.9854C175.066 19.3044 175.262 19.6849 175.39 20.127C175.522 20.569 175.588 21.0566 175.588 21.5898V22.2939H169.873V21.1113H173.961V20.9814C173.952 20.6852 173.893 20.4072 173.783 20.1475C173.678 19.8877 173.517 19.6781 173.298 19.5186C173.079 19.359 172.787 19.2793 172.423 19.2793C172.149 19.2793 171.906 19.3385 171.691 19.457C171.482 19.571 171.306 19.7373 171.165 19.9561C171.024 20.1748 170.914 20.4391 170.837 20.749C170.764 21.0544 170.728 21.3984 170.728 21.7812V22.0547C170.728 22.3783 170.771 22.679 170.857 22.957C170.949 23.2305 171.081 23.4697 171.254 23.6748C171.427 23.8799 171.637 24.0417 171.883 24.1602C172.129 24.2741 172.409 24.3311 172.724 24.3311C173.12 24.3311 173.473 24.2513 173.783 24.0918C174.093 23.9323 174.362 23.7067 174.59 23.415L175.458 24.2559C175.299 24.4883 175.091 24.7116 174.836 24.9258C174.581 25.1354 174.269 25.3063 173.899 25.4385C173.535 25.5706 173.111 25.6367 172.628 25.6367Z" fill="#1F1F1F"/>
</g>
<defs>
<clipPath id="clip0_412_260">
<rect width="189" height="40" fill="white" transform="translate(0 0.5)"/>
</clipPath>
</defs>
</svg>
